<svg id="レイヤー_1" data-name="レイヤー 1" xmlns="http://www.w3.org/2000/svg" viewBox="0 0 122.32 138.97"><defs><style>.cls-1,.cls-2,.cls-3{fill:none;stroke:#1fb3d4;}.cls-1,.cls-3{stroke-linecap:round;stroke-linejoin:round;}.cls-1{stroke-width:1.37px;}.cls-2{stroke-miterlimit:10;stroke-width:1.12px;stroke-dasharray:1.72 2.09;}.cls-3{stroke-width:1.38px;}.cls-4{fill:#1fb3d4;}</style></defs><title>アートボード 1</title><polygon class="cls-1" points="1.86 104.76 61.17 2.04 120.47 104.76 1.86 104.76"/><polygon class="cls-2" points="120.47 36.25 61.17 138.97 1.86 36.25 120.47 36.25"/><polygon class="cls-1" points="90.86 53.32 61.17 104.76 31.47 53.32 90.86 53.32"/><polygon class="cls-3" points="1.77 36.33 61.17 2.04 120.56 36.33 120.56 104.92 61.17 139.21 1.77 104.92 1.77 36.33"/><line class="cls-1" x1="61.17" y1="104.76" x2="61.17" y2="138.97"/><line class="cls-1" x1="90.87" y1="53.32" x2="120.56" y2="36.33"/><line class="cls-1" x1="1.77" y1="36.33" x2="31.47" y2="53.32"/><polygon class="cls-2" points="31.47 88.01 61.17 36.57 90.86 88.01 31.47 88.01"/><line class="cls-2" x1="61.17" y1="36.57" x2="61.17" y2="2.36"/><line class="cls-2" x1="31.47" y1="88.01" x2="1.77" y2="105"/><line class="cls-2" x1="120.56" y1="105" x2="90.87" y2="88.01"/><path class="cls-4" d="M63.15,2.08A2.08,2.08,0,1,1,61.08,0,2.07,2.07,0,0,1,63.15,2.08Z"/><path class="cls-4" d="M122.32,36.41a2.08,2.08,0,1,1-2.08-2.08A2.08,2.08,0,0,1,122.32,36.41Z"/><path class="cls-4" d="M4.15,36.41a2.08,2.08,0,1,1-2.07-2.08A2.08,2.08,0,0,1,4.15,36.41Z"/><path class="cls-4" d="M63.15,70.58a2.08,2.08,0,1,1-2.07-2.08A2.07,2.07,0,0,1,63.15,70.58Z"/><path class="cls-4" d="M33.53,87.7a2.08,2.08,0,1,1-2.08-2.07A2.08,2.08,0,0,1,33.53,87.7Z"/><path class="cls-4" d="M92.9,87.83a2.08,2.08,0,1,1-2.07-2.08A2.07,2.07,0,0,1,92.9,87.83Z"/><path class="cls-4" d="M92.65,53.33a2.08,2.08,0,1,1-2.07-2.08A2.07,2.07,0,0,1,92.65,53.33Z"/><path class="cls-4" d="M33.53,53.33a2.08,2.08,0,1,1-2.08-2.08A2.08,2.08,0,0,1,33.53,53.33Z"/><path class="cls-4" d="M63.28,36.2a2.08,2.08,0,1,1-2.08-2.07A2.08,2.08,0,0,1,63.28,36.2Z"/><path class="cls-4" d="M63.15,139a2.08,2.08,0,1,1-2.07-2.08A2.08,2.08,0,0,1,63.15,139Z"/><path class="cls-4" d="M63.15,105a2.08,2.08,0,1,1-2.07-2.08A2.08,2.08,0,0,1,63.15,105Z"/><path class="cls-4" d="M122.32,104.91a2.08,2.08,0,1,1-2.08-2.08A2.08,2.08,0,0,1,122.32,104.91Z"/><path class="cls-4" d="M4.15,104.91a2.08,2.08,0,1,1-2.07-2.08A2.08,2.08,0,0,1,4.15,104.91Z"/></svg>